<svg width="16" height="16" viewBox="0 0 16 16" fill="none" xmlns="http://www.w3.org/2000/svg">
<path d="M15.3059 3.95755C15.3059 3.94063 15.3059 3.94063 15.3059 3.92372C15.289 3.8899 15.289 3.85607 15.2721 3.82225V3.80533C15.2552 3.77151 15.2213 3.73768 15.2044 3.72077L15.1875 3.70386C15.1706 3.68695 15.1368 3.67003 15.1199 3.65312L15.1029 3.63621H15.086L15.0691 3.6193L7.88127 0.0507378C7.74597 -0.0169126 7.57684 -0.0169126 7.42463 0.0507378L5.00613 1.25153L12.2278 4.95539L12.2447 4.9723C12.2616 4.9723 12.2616 4.98922 12.2785 4.98922C12.2955 5.00613 12.2955 5.02304 12.3124 5.03995C12.3124 5.05687 12.3124 5.05687 12.3124 5.07378V5.09069V9.01441C12.3124 9.08206 12.2785 9.1328 12.2278 9.16663L10.7733 9.92769C10.6888 9.97843 10.5873 9.94461 10.5365 9.86004C10.5196 9.84313 10.5196 9.80931 10.5196 9.77548V5.93632L3.21339 2.16481L3.19648 2.1479L0.270601 3.60238L0.253689 3.6193H0.236776L0.219864 3.63621C0.202951 3.65312 0.169126 3.67003 0.152213 3.68695L0.135301 3.70386C0.101476 3.73768 0.084563 3.77151 0.0507378 3.80533V3.82225C0.0338252 3.85607 0.0169126 3.8899 0.0169126 3.92372C0.0169126 3.94063 0.0169126 3.94063 0.0169126 3.95755C0.0169126 3.99137 0 4.00829 0 4.04211V4.05902V11.9403C0 12.1263 0.101476 12.3124 0.287514 12.3969L7.40772 15.9486C7.50919 15.9993 7.62758 16.0162 7.74597 15.9824L7.77979 15.9655C7.81362 15.9655 7.83053 15.9486 7.86436 15.9317L15.0353 12.38C15.2044 12.2955 15.3228 12.1263 15.3228 11.9234V4.05902V4.04211C15.3059 4.00829 15.3059 3.99137 15.3059 3.95755Z" fill="url(#paint0_linear_18_122)"/>
<defs>
<linearGradient id="paint0_linear_18_122" x1="0" y1="16" x2="15.985" y2="0.691506" gradientUnits="userSpaceOnUse">
<stop stop-color="#FF8E59"/>
<stop offset="1" stop-color="#FF3837"/>
</linearGradient>
</defs>
</svg>
