<svg width="16" height="16" viewBox="0 0 16 16" fill="none" xmlns="http://www.w3.org/2000/svg">
<path fill-rule="evenodd" clip-rule="evenodd" d="M6.09326 8.49976C5.83435 8.49976 5.62451 8.7096 5.62451 8.96851V10.7498C5.62451 11.0079 5.83508 11.2186 6.09326 11.2186H9.93714C10.1953 11.2186 10.4059 11.0081 10.4059 10.7498V8.96851C10.4059 8.7096 10.1961 8.49976 9.93714 8.49976H8.52625V8.96253C8.52625 9.22131 8.31641 9.43128 8.0575 9.43128C7.79859 9.43128 7.58875 9.22131 7.58875 8.96253V8.49976H6.09326Z" fill="url(#paint0_linear_18_117)"/>
<path fill-rule="evenodd" clip-rule="evenodd" d="M7.12501 12.1561H6.14026V12.6249C6.14026 12.8838 5.93042 13.0936 5.67151 13.0936C5.4126 13.0936 5.20276 12.8838 5.20276 12.6249V12.1561H4.21802C3.95984 12.1561 3.74927 12.3667 3.74927 12.6249V15.5313C3.74927 15.7902 3.95911 16 4.21802 16H7.12501C7.38319 16 7.59376 15.7894 7.59376 15.5313V12.6249C7.59376 12.3667 7.38319 12.1561 7.12501 12.1561Z" fill="url(#paint1_linear_18_117)"/>
<path fill-rule="evenodd" clip-rule="evenodd" d="M11.8967 12.1561H10.9171V12.6249C10.9171 12.8838 10.7073 13.0936 10.4484 13.0936C10.1895 13.0936 9.97962 12.8838 9.97962 12.6249V12.1561H9C8.74182 12.1561 8.53125 12.3667 8.53125 12.6249V15.5313C8.53125 15.7894 8.74182 16 9 16H11.8967C12.1556 16 12.3655 15.7902 12.3655 15.5313V12.6249C12.3655 12.3667 12.1549 12.1561 11.8967 12.1561Z" fill="url(#paint2_linear_18_117)"/>
<path fill-rule="evenodd" clip-rule="evenodd" d="M15.7694 3.65842L12.0288 1.09751C12.0181 1.09018 11.886 1.03171 11.886 1.03159L8.12024 0.015962C8.03564 -0.00662106 7.95019 -0.00454583 7.8717 0.0177931L4.11266 1.03159C4.05273 1.04758 3.99865 1.07456 3.9519 1.10984L0.204086 3.67564C0.0630947 3.77195 -0.00868272 3.93174 0.000838792 4.09068L0.000960861 15.5312C0.000960861 15.7891 0.210068 15.9982 0.467881 15.9982V16H2.34288C2.6018 16 2.81176 15.7902 2.81176 15.5312V6.99962H13.187V15.5312C13.187 15.7902 13.397 16 13.6558 16H15.5309C15.7898 16 15.9996 15.7902 15.9996 15.5312V4.06211C15.9998 3.89024 15.9072 3.74009 15.7694 3.65842ZM11.2183 4.53086H4.78039C4.5216 4.53086 4.31164 4.3209 4.31164 4.06211C4.31164 3.8032 4.5216 3.59324 4.78039 3.59324H11.2183C11.4772 3.59324 11.687 3.8032 11.687 4.06211C11.6871 4.3209 11.4772 4.53086 11.2183 4.53086Z" fill="url(#paint3_linear_18_117)"/>
<defs>
<linearGradient id="paint0_linear_18_117" x1="5.62451" y1="11.2186" x2="7.96109" y2="7.10955" gradientUnits="userSpaceOnUse">
<stop stop-color="#FF8E59"/>
<stop offset="1" stop-color="#FF3837"/>
</linearGradient>
<linearGradient id="paint1_linear_18_117" x1="3.74927" y1="16" x2="7.59315" y2="12.1555" gradientUnits="userSpaceOnUse">
<stop stop-color="#FF8E59"/>
<stop offset="1" stop-color="#FF3837"/>
</linearGradient>
<linearGradient id="paint2_linear_18_117" x1="8.53125" y1="16" x2="12.3751" y2="12.1658" gradientUnits="userSpaceOnUse">
<stop stop-color="#FF8E59"/>
<stop offset="1" stop-color="#FF3837"/>
</linearGradient>
<linearGradient id="paint3_linear_18_117" x1="0" y1="16" x2="16" y2="0.000350956" gradientUnits="userSpaceOnUse">
<stop stop-color="#FF8E59"/>
<stop offset="1" stop-color="#FF3837"/>
</linearGradient>
</defs>
</svg>
