<svg width="16" height="16" viewBox="0 0 16 16" fill="none" xmlns="http://www.w3.org/2000/svg">
<path d="M15.5 15.9999H12.8333C12.5573 15.9999 12.3333 15.7759 12.3333 15.4999V14.6666H10.3333V15.4999C10.3333 15.7759 10.1093 15.9999 9.83333 15.9999H6.16667C5.89067 15.9999 5.66667 15.7759 5.66667 15.4999V14.6666H3.66667V15.4999C3.66667 15.7759 3.44267 15.9999 3.16667 15.9999H0.5C0.224 15.9999 0 15.7759 0 15.4999V13.3333H16V15.4999C16 15.7759 15.776 15.9999 15.5 15.9999Z" fill="url(#paint0_linear_18_129)"/>
<path d="M10.6666 0H8.66663V1.33333C8.66663 1.70133 8.36796 2 7.99996 2C7.63196 2 7.33329 1.70133 7.33329 1.33333V0H5.33329C4.96529 0 4.66663 0.298667 4.66663 0.666667V4.66667C4.66663 5.03467 4.96529 5.33333 5.33329 5.33333H10.6666C11.0346 5.33333 11.3333 5.03467 11.3333 4.66667V0.666667C11.3333 0.298667 11.0346 0 10.6666 0Z" fill="url(#paint1_linear_18_129)"/>
<path d="M6.66663 6.66675H4.66663V8.00008C4.66663 8.36808 4.36796 8.66675 3.99996 8.66675C3.63196 8.66675 3.33329 8.36808 3.33329 8.00008V6.66675H1.33329C0.965293 6.66675 0.666626 6.96541 0.666626 7.33341V11.3334C0.666626 11.7014 0.965293 12.0001 1.33329 12.0001H6.66663C7.03463 12.0001 7.33329 11.7014 7.33329 11.3334V7.33341C7.33329 6.96541 7.03463 6.66675 6.66663 6.66675Z" fill="url(#paint2_linear_18_129)"/>
<path d="M14.6666 6.66675H12.6666V8.00008C12.6666 8.36808 12.368 8.66675 12 8.66675C11.632 8.66675 11.3333 8.36808 11.3333 8.00008V6.66675H9.33329C8.96529 6.66675 8.66663 6.96541 8.66663 7.33341V11.3334C8.66663 11.7014 8.96529 12.0001 9.33329 12.0001H14.6666C15.0346 12.0001 15.3333 11.7014 15.3333 11.3334V7.33341C15.3333 6.96541 15.0346 6.66675 14.6666 6.66675Z" fill="url(#paint3_linear_18_129)"/>
<defs>
<linearGradient id="paint0_linear_18_129" x1="0" y1="15.9999" x2="0.864865" y2="10.8107" gradientUnits="userSpaceOnUse">
<stop stop-color="#FF8E59"/>
<stop offset="1" stop-color="#FF3837"/>
</linearGradient>
<linearGradient id="paint1_linear_18_129" x1="4.66663" y1="5.33333" x2="9.86988" y2="-1.17073" gradientUnits="userSpaceOnUse">
<stop stop-color="#FF8E59"/>
<stop offset="1" stop-color="#FF3837"/>
</linearGradient>
<linearGradient id="paint2_linear_18_129" x1="0.666626" y1="12.0001" x2="5.86988" y2="5.49602" gradientUnits="userSpaceOnUse">
<stop stop-color="#FF8E59"/>
<stop offset="1" stop-color="#FF3837"/>
</linearGradient>
<linearGradient id="paint3_linear_18_129" x1="8.66663" y1="12.0001" x2="13.8699" y2="5.49602" gradientUnits="userSpaceOnUse">
<stop stop-color="#FF8E59"/>
<stop offset="1" stop-color="#FF3837"/>
</linearGradient>
</defs>
</svg>
