<svg width="56" height="56" viewBox="0 0 56 56" fill="none" xmlns="http://www.w3.org/2000/svg">
<path d="M28 0C12.5362 0 0 12.536 0 28C0 43.464 12.5362 56 28 56C43.4638 56 56 43.464 56 28C56 12.536 43.4638 0 28 0ZM37.6775 29.4842L23.6775 38.2342C23.3942 38.4111 23.0721 38.5 22.75 38.5C22.4582 38.5 22.1659 38.4274 21.9015 38.2804C21.3452 37.9719 21 37.3866 21 36.75V19.25C21 18.6134 21.3452 18.0281 21.9015 17.7196C22.4578 17.4094 23.138 17.4282 23.6775 17.7658L37.6775 26.5158C38.1889 26.8362 38.5 27.3968 38.5 28C38.5 28.6032 38.1889 29.1639 37.6775 29.4842Z" fill="url(#paint0_linear_17_76)"/>
<defs>
<linearGradient id="paint0_linear_17_76" x1="0" y1="56" x2="56" y2="56" gradientUnits="userSpaceOnUse">
<stop stop-color="#FFBB8B"/>
<stop offset="1" stop-color="#FF3837"/>
</linearGradient>
</defs>
</svg>
