<svg width="165" height="48" viewBox="0 0 165 48" fill="none" xmlns="http://www.w3.org/2000/svg">
<path d="M71.1374 0.0883999C70.318 0.123642 69.4986 0.194126 69.3313 0.246988C69.1638 0.291042 68.5119 0.370337 67.8775 0.414389C65.8159 0.581789 62.8643 0.863726 62.6353 0.9254C62.5119 0.951832 62.3005 0.987074 62.1507 1.00469C61.2872 1.06637 57.6926 1.68311 56.0274 2.04434C55.4723 2.16768 54.6441 2.33508 54.1948 2.41438C53.7366 2.48486 53.2432 2.60821 53.0935 2.66988C52.9349 2.73156 52.1595 2.9342 51.3666 3.11041C50.5737 3.28662 49.86 3.46283 49.7807 3.50688C49.7014 3.54213 49.4195 3.63904 49.1552 3.70953C48.2653 3.96503 47.2609 4.22935 47.0847 4.26459C46.9173 4.29102 46.327 4.48485 44.4415 5.1104C44.0098 5.25137 43.3138 5.47163 42.8997 5.59498C42.4856 5.70952 42.0275 5.8681 41.8865 5.92978C41.7367 6.00026 41.1993 6.18528 40.6971 6.35268C40.1861 6.52008 39.4372 6.7844 39.0231 6.93418C38.609 7.09277 38.0187 7.31303 37.7015 7.42757C36.9438 7.7007 35.3226 8.31743 34.6619 8.57294C34.3711 8.68748 33.7191 8.94298 33.2081 9.128C32.6971 9.32183 32.0892 9.56853 31.8425 9.68306C31.6046 9.78879 31.3579 9.88571 31.2962 9.90333C31.1288 9.93857 30.0628 10.3527 27.9659 11.2161C27.5782 11.3747 26.8822 11.6566 26.424 11.8328C25.9659 12.009 25.4725 12.2205 25.3227 12.2998C25.1817 12.3791 25.0496 12.4319 25.0408 12.4231C25.0055 12.4055 24.7765 12.4848 23.8249 12.846C23.3403 13.0311 22.5474 13.3218 22.0628 13.4892C21.0055 13.8593 19.402 14.4407 18.4946 14.7844C18.1333 14.9253 17.4197 15.1985 16.9087 15.3923C16.3976 15.5861 15.5871 15.8681 15.1025 16.0266C14.6267 16.1764 14.151 16.3526 14.0452 16.4143C13.9483 16.476 13.6488 16.5729 13.3844 16.6346C13.1201 16.6874 12.4153 16.8901 11.8338 17.0751C11.2435 17.2601 10.3096 17.498 9.76333 17.6037C9.20826 17.7006 8.50342 17.8416 8.18624 17.9121C5.86027 18.4319 3.71931 18.7579 2.52989 18.7667C1.96602 18.7667 1.46382 18.7491 1.41976 18.7139C1.25236 18.6169 0.51228 18.9253 0.247965 19.2072C-0.00754055 19.4804 -0.0163511 19.5332 0.0100805 20.1147C0.0365121 20.6434 0.0805646 20.7931 0.327259 21.1456C0.653248 21.6213 1.39333 22.0795 2.35368 22.4055C3.75455 22.89 6.49462 22.89 8.49461 22.4055C8.68844 22.3614 9.18183 22.2469 11.0056 21.8328C12.4241 21.5156 15.032 20.8724 15.2787 20.7755C15.6488 20.6434 16.0981 20.52 16.9527 20.335C17.8338 20.15 18.195 20.0707 18.3624 20.0178C18.4153 20.0002 18.9879 19.8504 19.6399 19.683C20.2919 19.5068 21.0672 19.3042 21.358 19.2249C22.2566 18.9782 24.0716 18.52 24.5298 18.4143C24.7765 18.3614 25.402 18.2205 25.9306 18.0971C26.4593 17.9826 27.2258 17.8328 27.6487 17.7799C28.0628 17.7183 28.4681 17.6566 28.5385 17.6302C28.609 17.6037 28.794 17.5685 28.935 17.5509C29.0848 17.5421 30.0892 17.3658 31.1817 17.172C32.2742 16.9782 33.2962 16.8196 33.4548 16.8108C33.6134 16.8108 33.816 16.7755 33.8953 16.7315C34.142 16.5993 36.1156 16.3879 38.4063 16.2293C40.1596 16.1147 40.6178 16.0619 40.8909 15.9209C41.5164 15.6037 41.5693 15.1103 41.0054 14.8284C40.6794 14.6698 40.5032 14.6522 38.8204 14.6786C37.8072 14.6874 36.9173 14.7315 36.8381 14.7755C36.75 14.8196 35.6574 14.8813 34.3975 14.9077C31.5782 14.9782 27.0848 15.1985 26.0716 15.313C25.6575 15.3659 25.2082 15.4011 25.0584 15.3923C24.8029 15.3923 24.8029 15.3923 25.1465 15.2513C25.3403 15.1808 25.6575 15.0487 25.8513 14.9606C26.0452 14.8725 26.7236 14.5993 27.3491 14.3526C27.9835 14.0971 28.75 13.78 29.0672 13.639C29.3844 13.5068 30.4152 13.0927 31.3579 12.7227C32.3006 12.3527 33.1553 12.0002 33.2434 11.9562C33.3315 11.9033 33.6134 11.7888 33.8601 11.7095C34.3711 11.5333 37.3403 10.4231 37.7455 10.2469C38.1244 10.0972 40.1068 9.42756 40.7764 9.23373C41.0847 9.14562 41.6574 8.95179 42.0539 8.81082C42.4415 8.66104 43.2609 8.39673 43.8689 8.22052C44.4768 8.04431 45.3843 7.77999 45.8953 7.63902C46.4063 7.48924 47.2609 7.23374 47.7895 7.07515C48.327 6.91656 49.2168 6.67867 49.7719 6.54652C50.327 6.41436 50.8292 6.2822 50.8732 6.23815C50.9261 6.20291 51.023 6.16766 51.0935 6.16766C51.164 6.16766 51.4635 6.09718 51.7543 6.0267C52.045 5.95621 52.7763 5.78881 53.3842 5.65665C53.9921 5.53331 54.5296 5.39234 54.5736 5.3571C54.6265 5.32185 55.2609 5.18088 56.0009 5.05754C56.7322 4.93419 57.6221 4.76679 57.9833 4.69631C58.3357 4.61701 58.7146 4.54653 58.8203 4.52891C58.926 4.51128 59.0406 4.47604 59.0846 4.44961C59.1199 4.42318 60.1859 4.28221 61.4458 4.13243C62.7057 3.98265 63.9128 3.81525 64.133 3.7712C65.7806 3.40997 72.97 3.44521 75.2784 3.82406C75.8158 3.91217 76.6352 4.0267 78.0096 4.20292C78.7849 4.29983 79.6396 4.44961 79.9039 4.52009C80.1682 4.59058 80.7673 4.73155 81.2255 4.83727C82.8466 5.19851 85.7893 6.04432 86.2298 6.27339C86.362 6.34387 86.8289 6.51127 87.2607 6.66105C88.0712 6.92537 90.8025 8.1236 90.9523 8.27338C91.0051 8.31743 91.0844 8.35267 91.1461 8.35267C91.2783 8.35267 94.08 9.90333 94.9699 10.4584C95.3311 10.6963 96.124 11.172 96.732 11.5245C97.3399 11.8769 98.3355 12.5024 98.9522 12.9077C99.569 13.3042 100.115 13.639 100.168 13.639C100.212 13.639 100.256 13.6742 100.256 13.7183C100.256 13.7976 99.6571 13.8504 98.0095 13.9385C97.5249 13.9562 97.0139 14.0002 96.8641 14.0267C96.7232 14.0531 95.3752 14.1148 93.8686 14.1676C92.3708 14.2205 89.9919 14.3174 88.5822 14.3879C82.318 14.7139 82.3444 14.7051 82.0096 15.0134C81.7717 15.2249 81.7981 15.5949 82.0713 15.8504C82.2915 16.0619 82.318 16.0619 84.6439 16.1236C85.9391 16.1588 90.0095 16.15 93.6923 16.1059C109.199 15.9033 117.816 16.0443 125.322 16.5993C126.291 16.6698 127.604 16.7667 128.23 16.8108C131.102 17.0046 132.335 17.1015 134.221 17.2601C135.34 17.357 136.37 17.4539 136.511 17.4716C136.855 17.5244 138.212 17.6478 140.785 17.8769C141.921 17.9738 143.269 18.1147 143.78 18.1852C144.291 18.2557 145.278 18.3879 145.983 18.476C147.586 18.6874 148.679 18.8724 149.859 19.1456C150.37 19.2601 151.163 19.4363 151.622 19.542C152.08 19.639 152.776 19.8152 153.163 19.9297C153.551 20.0531 154.185 20.2381 154.573 20.335C154.961 20.4407 155.454 20.6081 155.666 20.705C155.886 20.8019 156.256 20.9429 156.503 21.0134C156.996 21.1544 158.881 21.9297 159.375 22.194C159.542 22.2821 160.044 22.5376 160.476 22.7667C161.851 23.4715 162.917 24.2116 164.15 25.2865C164.3 25.4275 164.458 25.5332 164.494 25.5332C164.538 25.5332 164.573 24.9429 164.573 24.2292V22.9165L163.586 21.9385C163.04 21.4011 162.37 20.7843 162.097 20.5641C161.586 20.15 160.115 19.1896 159.992 19.1896C159.947 19.1896 159.648 19.0487 159.313 18.8813C158.458 18.4319 157.375 17.9826 156.203 17.5949C155.648 17.4011 155.11 17.2161 155.014 17.172C154.758 17.0487 153.771 16.7579 153.207 16.6258C152.943 16.5729 152.388 16.4143 151.974 16.2821C151.56 16.15 150.952 15.9914 150.608 15.9297C150.273 15.8681 149.771 15.7623 149.507 15.6918C148.3 15.3835 147.648 15.2337 146.908 15.1103C146.476 15.0311 145.877 14.9253 145.586 14.8725C145.296 14.8196 144.547 14.6786 143.93 14.5641C143.304 14.4496 142.379 14.3174 141.859 14.2557C141.34 14.2029 140.503 14.0971 139.992 14.0267C135.683 13.4452 131.93 13.2513 123.296 13.1985C121.023 13.1808 119.093 13.1985 119.023 13.2249C118.952 13.2513 117.128 13.2954 114.97 13.3218L111.049 13.3659L110.653 13.1544C110.432 13.0399 109.957 12.7932 109.595 12.617C109.234 12.4319 108.873 12.2381 108.802 12.1853C108.732 12.1236 108.08 11.7712 107.349 11.3923C106.626 11.0135 105.675 10.5201 105.234 10.291C102.565 8.88131 95.3223 5.22494 93.6923 4.45842C92.08 3.70072 90.6968 3.08398 90.4765 3.0223C90.3532 2.98706 90.0184 2.84609 89.7276 2.71394C89.4369 2.58178 88.8201 2.34389 88.362 2.1853C87.9038 2.02672 87.4809 1.85932 87.4281 1.82407C87.384 1.78002 87.1197 1.69192 86.8554 1.62143C86.5911 1.55095 85.9391 1.37474 85.3928 1.23377C84.8466 1.08399 84.3708 0.94302 84.3268 0.91659C84.1946 0.837294 80.9347 0.326284 79.6836 0.194126C77.7453 -0.0173264 74.0713 -0.0613804 71.1374 0.0883999Z" fill="#FF3535"/>
<path d="M69.6837 9.55112C69.1727 9.6216 68.7322 9.70971 68.697 9.74495C68.6353 9.80662 68.556 10.9344 68.5472 11.974C68.5384 12.3529 68.5119 12.3969 68.1243 12.67L67.719 12.9696L67.1375 12.811C65.8952 12.4674 65.7807 12.4586 65.3754 12.6612C65.1728 12.767 64.9789 12.9255 64.9525 13.0048C64.9261 13.0841 64.7675 13.4718 64.6001 13.8595C64.4327 14.2471 64.2741 14.6084 64.2476 14.67C64.23 14.7229 64.4327 14.9255 64.7234 15.1106C65.0054 15.2956 65.252 15.4718 65.2785 15.4982C65.3049 15.5246 65.5516 15.6744 65.8335 15.833C66.4062 16.159 66.3886 16.1414 66.4591 16.7845C66.5031 17.2251 66.4943 17.2427 66.1243 17.6215C65.534 18.203 64.838 19.0048 64.838 19.0841C64.838 19.1281 65.023 19.3925 65.2432 19.6832C65.4723 19.9651 65.7895 20.4145 65.9569 20.6612C66.1155 20.9167 66.3181 21.1281 66.3974 21.1281C66.4855 21.1281 67.023 20.8638 67.5956 20.5466L68.6441 19.9651L69.1375 20.1766L69.6309 20.388L69.9128 21.4365C70.3093 22.9431 70.2212 22.8286 70.9084 22.7581C71.2256 22.7228 71.8071 22.6524 72.1947 22.5907C73.0317 22.4761 73.0141 22.5202 73.0229 20.996L73.0317 19.9299L73.4635 19.6127L73.8952 19.2867L74.8555 19.5422C75.3753 19.692 75.948 19.8066 76.1242 19.8066C76.4238 19.8066 76.4502 19.7801 76.6264 19.3396C76.7233 19.0929 76.926 18.5907 77.0758 18.2295C77.2255 17.8771 77.3489 17.5599 77.3489 17.5246C77.3489 17.4453 76.3357 16.7581 75.6661 16.3881L75.1727 16.1061L75.1198 15.5599L75.067 15.0048L75.904 14.159C76.3621 13.6921 76.7322 13.2515 76.7322 13.1811C76.7322 13.0577 76.1683 12.2471 75.5251 11.463C75.1639 11.0225 75.2079 11.0137 73.8511 11.789C72.9613 12.3088 72.926 12.3176 72.6969 12.1855C72.5648 12.115 72.3533 12.0181 72.23 11.974C72.0361 11.9035 71.9745 11.7802 71.763 10.9784C71.6309 10.485 71.4547 9.92997 71.3754 9.76257C71.1903 9.38372 71.0317 9.3661 69.6837 9.55112ZM71.8599 14.1854C72.7057 14.7493 72.9789 15.2075 72.9877 16.0621C72.9877 16.8022 72.7322 17.3749 72.2124 17.8242C71.6397 18.3176 70.3621 18.485 69.8159 18.1414C69.0141 17.6392 68.6265 16.996 68.6265 16.1502C68.6265 15.2515 69.067 14.4938 69.7983 14.1238C70.2036 13.9211 70.3357 13.8947 70.8908 13.9299C71.3842 13.9564 71.6044 14.018 71.8599 14.1854Z" fill="white"/>
<path d="M53.411 11.6038C52.8207 11.6831 52.3097 11.7712 52.2833 11.8065C52.1863 11.9034 52.063 13.1809 52.0806 13.8329C52.0894 14.1589 52.0806 14.4408 52.0542 14.4496C52.0366 14.4673 51.8515 14.6082 51.6489 14.7668L51.2789 15.0488L50.2833 14.7844C48.7062 14.3615 48.8295 14.3087 48.2392 15.6831C47.9661 16.3263 47.7811 16.8813 47.8163 16.9166C47.8516 16.9518 48.3361 17.2514 48.8912 17.5862L49.9044 18.1941L49.9749 18.7756L50.0454 19.3571L49.1996 20.2117C48.7326 20.6787 48.3626 21.128 48.3802 21.1985C48.433 21.4452 49.8163 23.1456 49.9749 23.1456C50.1511 23.1544 50.7502 22.8637 51.6489 22.3439C52.1335 22.0619 52.2744 22.0179 52.3714 22.0972C52.4418 22.1589 52.6445 22.2558 52.8295 22.3174C53.1467 22.432 53.1555 22.4408 53.3934 23.3395C53.5255 23.8417 53.7017 24.4055 53.7899 24.5906C53.9396 24.8989 53.9749 24.9254 54.2216 24.8813C54.3625 24.8549 54.9 24.7844 55.411 24.7315C56.0277 24.661 56.3713 24.5818 56.4506 24.4848C56.5211 24.3967 56.5564 23.9826 56.5564 23.1633L56.5652 21.965L56.9969 21.6655C57.2876 21.4716 57.4991 21.3835 57.6312 21.4188C57.7458 21.4364 58.2392 21.5685 58.7414 21.7007C59.8251 21.9826 60.0101 21.9562 60.1422 21.5069C60.1951 21.3219 60.3801 20.8197 60.5652 20.3967C60.9528 19.4628 61.0057 19.5597 59.7017 18.7492L58.7766 18.1765L58.7149 17.6126L58.6533 17.0487L59.2171 16.4761C59.5167 16.1501 59.7898 15.8681 59.8163 15.8417C59.8427 15.8153 59.9748 15.6655 60.1158 15.5157L60.3625 15.2338L59.7458 14.4144C59.4022 13.9651 59.0409 13.4981 58.9528 13.3748L58.7854 13.1633L58.3978 13.3307C58.1863 13.4276 57.7017 13.6919 57.3141 13.921C56.9264 14.1589 56.574 14.3439 56.5211 14.3439C56.4683 14.3439 56.2216 14.2558 55.9661 14.1501C55.5872 13.9915 55.4991 13.9122 55.4462 13.6919C55.4198 13.5422 55.2965 13.084 55.1731 12.6699C55.0498 12.2558 54.9264 11.8417 54.9 11.7448C54.8471 11.551 54.715 11.4364 54.574 11.4452C54.5299 11.4541 54.0013 11.5245 53.411 11.6038ZM55.3846 16.247C56.0894 16.6523 56.5564 17.4805 56.5564 18.3087C56.5564 18.7227 56.0982 19.639 55.7546 19.9298C55.4462 20.1941 54.7326 20.4232 54.2304 20.4232C53.4903 20.4232 52.5828 19.78 52.2744 19.0487C52.1247 18.6963 52.1159 17.9562 52.248 17.4805C52.3537 17.1016 52.9264 16.432 53.3317 16.2117C53.9749 15.8858 54.7766 15.8946 55.3846 16.247Z" fill="white"/>
<path d="M13.5869 23.2865C11.0759 23.7446 9.2345 25.1983 7.96579 27.7358C7.10235 29.4626 6.67945 31.1278 6.50324 33.4626C6.20368 37.4626 6.89971 41.0837 8.42393 43.489C8.83803 44.141 10.0363 45.3216 10.6794 45.7004C11.8424 46.3876 13.4988 46.7401 15.0142 46.6343C16.4767 46.5286 17.9657 46.0793 17.9657 45.7269C17.9657 45.6476 17.8688 45.1013 17.7455 44.5198C17.5252 43.4361 17.4459 43.2952 17.023 43.1894C16.9173 43.163 16.6177 43.207 16.3622 43.304C16.0098 43.4185 15.6397 43.4626 14.882 43.4626C13.9834 43.4626 13.8072 43.4361 13.3138 43.2335C11.631 42.5198 10.6178 40.8194 10.1508 37.9119C9.94815 36.652 9.94815 33.2952 10.1508 32.097C10.5296 29.8855 11.3314 28.1322 12.3799 27.2159C13.3226 26.3878 14.7939 26.1058 16.0715 26.5023C16.6794 26.6961 16.9701 26.6961 17.2433 26.5199C17.3137 26.4759 17.4988 25.8944 17.6662 25.216L17.9745 24.0001L17.7719 23.8415C17.49 23.6213 16.6265 23.3481 15.8953 23.2424C15.0935 23.1279 14.371 23.1455 13.5869 23.2865Z" fill="#FF3535"/>
<path d="M104.97 23.5246C104.944 23.6391 104.486 25.6479 103.957 28.0003C103.419 30.3527 102.926 32.5113 102.856 32.8021C102.794 33.0928 102.591 33.9474 102.424 34.6963C102.256 35.4452 101.895 37.0135 101.631 38.1765C101.367 39.3395 100.864 41.5157 100.521 43.0047C100.186 44.5025 99.9041 45.78 99.9041 45.8593C99.9041 45.9298 99.9833 46.106 100.089 46.2469L100.274 46.5024L101.693 46.4848L103.12 46.4584L103.261 45.7976C103.886 42.8813 104.503 40.0884 104.538 39.9562C104.582 39.8153 104.759 39.8064 106.688 39.8064C108.618 39.8064 108.794 39.8153 108.838 39.9562C108.9 40.1589 109.913 44.8373 110.107 45.7712L110.248 46.5024L111.701 46.4936H113.164L113.367 46.2381L113.56 45.9914L111.093 34.8549C109.728 28.7316 108.591 23.6391 108.565 23.5246C108.521 23.3308 108.512 23.3308 106.767 23.3308C105.023 23.3308 105.014 23.3308 104.97 23.5246ZM107.032 30.8197C107.217 31.7624 108.142 36.3351 108.23 36.6963L108.274 36.899H106.688H105.102L105.146 36.6963C105.261 36.2029 106.362 30.8726 106.477 30.203C106.556 29.7889 106.635 29.3924 106.662 29.3219C106.715 29.1809 106.732 29.2338 107.032 30.8197Z" fill="white"/>
<path d="M149.463 24.5728C146.67 24.7931 144.23 25.9032 142.203 27.868C139.86 30.1411 138.653 32.9693 138.644 36.1939C138.644 38.3437 139.032 39.9119 140.036 41.8062C141.137 43.8855 143.296 45.9207 145.411 46.8723C146.9 47.5419 148.926 48 150.388 48C151.023 48 152.67 47.7709 153.296 47.5947C156.089 46.8194 158.274 45.304 159.921 43.0132C163.234 38.3965 162.706 32.0794 158.67 28.0089C156.239 25.5596 152.864 24.2997 149.463 24.5728ZM152.415 26.194C153.111 26.3437 154.327 26.7578 154.926 27.0574C155.64 27.4098 156.767 28.2116 157.419 28.8283C158.855 30.1851 159.816 31.8415 160.397 33.9913C160.521 34.4406 160.556 34.9076 160.556 36.1939C160.565 37.6917 160.547 37.8943 160.318 38.7313C160.036 39.7974 159.754 40.5022 159.261 41.3481C158.203 43.1806 156.662 44.5991 154.776 45.489C153.296 46.1762 152.38 46.4053 150.741 46.4758C147.763 46.6079 144.952 45.4538 142.864 43.2335C142.115 42.4406 141.816 42.0177 141.261 40.9956C139.719 38.1322 139.71 34.3877 141.243 31.5243C142.891 28.4318 145.798 26.4671 149.331 26.0266C149.895 25.9561 151.745 26.0618 152.415 26.194Z" fill="#FF3535"/>
<path d="M149.128 26.6877C147.013 26.9961 145.057 27.974 143.577 29.463C140.872 32.1678 140.009 36.1678 141.357 39.7625C142.273 42.1942 144.467 44.4233 146.828 45.322C147.674 45.6391 148.696 45.877 149.683 45.9827C151.894 46.2206 154.731 45.3572 156.467 43.9211C157.718 42.8726 158.467 41.9563 159.101 40.7141C161.462 36.0092 159.788 30.4586 155.216 27.8507C153.471 26.8551 151.093 26.397 149.128 26.6877ZM152.502 28.3969C153.427 28.6436 154 28.9344 154 29.137C154 29.4102 153.568 30.4498 153.225 30.9961C152.828 31.6304 152.352 32.0709 151.736 32.3705C151.313 32.5819 151.128 32.6172 150.485 32.6172C149.833 32.6172 149.648 32.5819 149.172 32.3705C148.211 31.93 147.383 30.8375 146.978 29.4806C146.855 29.0577 146.855 29.0137 147.004 28.908C147.198 28.767 148.088 28.4674 148.811 28.3088C149.595 28.1326 151.727 28.1855 152.502 28.3969ZM145.78 31.5599C146.273 32.0181 146.502 32.3264 146.758 32.8286C147.057 33.4542 147.084 33.5511 147.084 34.3C147.084 35.0489 147.066 35.1282 146.767 35.6656C146.388 36.3528 145.736 36.8991 144.969 37.1722C144.352 37.3837 142.969 37.5423 142.59 37.4453L142.326 37.3661L142.335 36.1854C142.335 35.2515 142.379 34.8551 142.538 34.2648C142.855 33.0665 143.604 31.6921 144.397 30.8375C144.582 30.6436 144.59 30.6436 144.855 30.7934C145.013 30.8815 145.427 31.2251 145.78 31.5599ZM156.89 31.3132C158.009 32.7493 158.581 34.3969 158.59 36.2119C158.59 36.7846 158.564 37.2956 158.537 37.3396C158.449 37.4806 156.943 37.4453 156.352 37.2868C155.648 37.1105 155.216 36.8815 154.74 36.441C153.401 35.2075 153.445 33.3044 154.855 31.789C155.286 31.322 156.141 30.6524 156.308 30.6436C156.344 30.6436 156.608 30.9432 156.89 31.3132ZM150.705 35.7361C150.934 35.8859 151.022 36.2031 150.916 36.4586C150.749 36.8727 150.07 36.9608 149.841 36.6084C149.727 36.4321 149.762 36.0709 149.912 35.8595C150.044 35.6656 150.493 35.5951 150.705 35.7361ZM147.894 39.0136C149.242 39.6832 149.833 41.1634 149.471 42.9784C149.383 43.3836 149.26 43.8506 149.189 44.018C149.075 44.3087 149.048 44.3176 148.714 44.2647C147.877 44.1325 146.256 43.4013 145.515 42.8198C144.67 42.1502 143.507 40.7933 143.286 40.2119C143.234 40.0797 144.079 39.4365 144.74 39.1017C145.745 38.5995 146.978 38.5643 147.894 39.0136ZM156.167 39.137C156.943 39.507 157.612 39.9916 157.612 40.1854C157.612 40.3793 156.758 41.5334 156.185 42.0973C155.269 43.0224 154.088 43.7184 152.819 44.1149C151.868 44.4057 151.833 44.3968 151.621 43.7008C151.515 43.3748 151.401 42.8198 151.348 42.4673C151.145 41.0224 151.797 39.5951 152.907 39.0489C153.586 38.7141 153.859 38.6612 154.661 38.7053C155.269 38.7405 155.48 38.8022 156.167 39.137Z" fill="#FF3535"/>
<path d="M132.176 26.4405L130.837 26.9868L130.828 28.2819V29.5859H130.053C129.348 29.5859 129.251 29.6035 129.075 29.7973C128.899 29.9823 128.881 30.0969 128.881 30.9955C128.872 31.903 128.89 31.9999 129.075 32.1938C129.251 32.3876 129.339 32.4052 130.053 32.4052H130.828V37.5506C130.828 43.11 130.864 43.7003 131.304 44.6871C131.56 45.251 132.123 45.9029 132.643 46.2025C133.551 46.7399 135.145 46.8192 136.67 46.4051L137.022 46.3082L136.96 45.1629C136.899 44.0703 136.89 44.0087 136.67 43.8237C136.467 43.6474 136.37 43.6298 135.815 43.6651C135.269 43.6915 135.154 43.6739 134.881 43.4889C134.493 43.2245 134.353 42.9338 134.256 42.1937C134.22 41.8765 134.185 39.5417 134.176 37.0043V32.4052H135.524C137.286 32.4052 137.26 32.4317 137.26 30.9867C137.26 29.5682 137.286 29.5859 135.515 29.5859H134.176V27.9207V26.2555L133.877 26.0705C133.718 25.9647 133.568 25.8854 133.551 25.8943C133.533 25.8943 132.916 26.141 132.176 26.4405Z" fill="white"/>
<path d="M23.2962 29.5422C22.5737 29.6744 21.6398 30.018 20.9614 30.3969C20.6971 30.5466 20.468 30.6788 20.4504 30.6876C20.4328 30.7052 20.5737 31.1898 20.75 31.7713C21.0759 32.8109 21.0848 32.8286 21.4019 32.9343C21.6927 33.0312 21.772 33.0224 22.1596 32.8197C22.8997 32.4409 23.5605 32.2911 24.2566 32.3352C25.0495 32.3968 25.49 32.5995 25.7543 33.0576C25.9922 33.4717 26.2477 34.5114 26.2477 35.0841V35.4805L25.7455 35.5334C23.6222 35.7801 22.0892 36.4585 20.9967 37.6391C19.9658 38.7492 19.4636 40.0884 19.4636 41.7448C19.4636 44.2822 20.6707 46.106 22.6795 46.6346C23.9041 46.9518 25.0231 46.7051 26.1244 45.8769C26.3799 45.6919 26.6002 45.5686 26.6354 45.595C26.6618 45.6302 26.6883 45.8417 26.6883 46.0796V46.5025H28.0451H29.4019L29.6134 46.2558C29.8072 46.0179 29.816 45.9562 29.7631 45.3043C29.7279 44.9254 29.6926 42.4232 29.6926 39.7624C29.6838 33.8682 29.6222 33.225 28.9173 31.7889C28.5297 30.9872 27.816 30.2383 27.1288 29.9211C26.1244 29.4453 24.6178 29.2955 23.2962 29.5422ZM26.3358 39.736C26.3358 41.9474 26.1156 42.7756 25.3843 43.4364C24.4768 44.2558 23.305 43.8241 22.9262 42.5466C22.7323 41.8682 22.8028 40.6347 23.0759 40.0003C23.446 39.1457 24.3799 38.5202 25.5693 38.3175C26.4151 38.1765 26.3358 38.0268 26.3358 39.736Z" fill="white"/>
<path d="M38.5561 29.507C38.001 29.6391 37.3402 30.0268 36.8116 30.5202L36.3182 31.0048L36.2565 30.7228C36.2301 30.573 36.2037 30.2559 36.2037 30.018V29.5863H34.8557H33.5077L33.2874 29.8242C33.0671 30.0709 33.0671 30.0709 33.1288 31.3484C33.164 32.0532 33.1905 35.6655 33.1993 39.3747L33.2081 46.1236L33.4107 46.3086C33.6046 46.4936 33.7015 46.5024 34.8909 46.5024H36.1684L36.4063 46.2557L36.6354 46.0179L36.6618 40.7756C36.6883 35.6831 36.6971 35.5157 36.8821 35.04C37.1552 34.3263 37.3226 34.0268 37.675 33.6303C38.1156 33.1457 38.5913 32.9166 39.2874 32.8638C39.7455 32.8373 39.9129 32.7757 40.1067 32.5995C40.3446 32.3704 40.3446 32.3704 40.3446 31.1369C40.3446 29.9211 40.3446 29.9035 40.1067 29.6568C39.9041 29.4453 39.8072 29.4101 39.3843 29.4189C39.1112 29.4277 38.7411 29.4629 38.5561 29.507Z" fill="white"/>
<path d="M45.3844 29.507C44.6972 29.6216 43.6399 29.9916 42.9879 30.3529C42.6708 30.5203 42.4064 30.67 42.3888 30.6877C42.3712 30.7053 42.5122 31.1899 42.6884 31.7713L43.0144 32.8286L43.3492 32.9255C43.6487 33.0136 43.7368 33.0048 44.1333 32.8022C45.3756 32.1766 46.8469 32.159 47.4725 32.7757C47.7985 33.1017 48.0804 33.9387 48.1597 34.8286L48.2126 35.4541L47.2346 35.6039C44.3624 36.0356 42.4681 37.4277 41.7016 39.692C41.5166 40.2382 41.4549 40.5995 41.4285 41.4365C41.358 43.2514 41.7457 44.4585 42.7236 45.4805C43.3227 46.106 43.8602 46.432 44.6179 46.6347C45.8425 46.9519 47.0584 46.6787 48.098 45.8505C48.5474 45.4981 48.6267 45.5422 48.6267 46.1237V46.5025H49.9747C51.2698 46.5025 51.3315 46.4937 51.4989 46.2999C51.6751 46.106 51.6751 46.0091 51.6222 40.0268L51.5606 33.9475L51.3315 33.0841C51.2081 32.6172 50.9703 31.9828 50.8117 31.6744C50.4416 30.9696 49.6927 30.2207 49.0408 29.9123C48.1157 29.463 46.6267 29.3044 45.3844 29.507ZM48.2566 39.6744C48.2831 41.3219 48.1861 42.0356 47.8337 42.758C47.5254 43.3836 47.0672 43.7448 46.4945 43.8241C45.7104 43.9298 45.0408 43.366 44.8293 42.4056C44.6796 41.7272 44.7677 40.573 45.0144 40.0004C45.3844 39.1457 46.3183 38.5202 47.5077 38.3176C48.2742 38.1854 48.2302 38.0973 48.2566 39.6744Z" fill="white"/>
<path d="M70.5206 29.5422C69.7981 29.6744 68.8642 30.018 68.1858 30.3969C67.9215 30.5466 67.6924 30.6788 67.6748 30.6876C67.6571 30.7052 67.7981 31.1898 67.9743 31.7713C68.3003 32.8109 68.3091 32.8286 68.6263 32.9343C68.9171 33.0312 68.9963 33.0224 69.384 32.8197C70.1241 32.4409 70.7849 32.2911 71.4809 32.3352C72.2739 32.3968 72.7144 32.5995 72.9787 33.0576C73.2166 33.4717 73.4721 34.5114 73.4721 35.0841V35.4805L72.9699 35.5334C70.8466 35.7801 69.3135 36.4585 68.221 37.6391C67.1902 38.7492 66.688 40.0884 66.688 41.7448C66.688 44.2822 67.895 46.106 69.9038 46.6346C71.1285 46.9518 72.2474 46.7051 73.3488 45.8769C73.6043 45.6919 73.8245 45.5686 73.8598 45.595C73.8862 45.6302 73.9126 45.8417 73.9126 46.0796V46.5025H75.2695H76.6263L76.8377 46.2558C77.0316 46.0179 77.0404 45.9562 76.9875 45.3043C76.9523 44.9254 76.917 42.4232 76.917 39.7624C76.9082 33.8682 76.8465 33.225 76.1417 31.7889C75.754 30.9872 75.0404 30.2383 74.3532 29.9211C73.3488 29.4453 71.8422 29.2955 70.5206 29.5422ZM73.5602 39.736C73.5602 41.8858 73.3488 42.7404 72.6615 43.3924C71.7629 44.247 70.5294 43.8417 70.1593 42.5642C69.9567 41.8682 70.0272 40.6435 70.3003 40.0003C70.6704 39.1457 71.6043 38.5202 72.7937 38.3175C73.6395 38.1765 73.5602 38.0268 73.5602 39.736Z" fill="white"/>
<path d="M85.7189 29.5686C85.1021 29.7272 84.4766 30.062 84.0096 30.4761C83.5779 30.855 83.5162 30.8109 83.5162 30.1589V29.5863H82.1682C80.9171 29.5863 80.8026 29.6039 80.6528 29.7625C80.4942 29.9387 80.4942 30.2999 80.5119 37.9827L80.5295 46.0179L80.7674 46.2557L80.9964 46.5024H82.2652C83.5162 46.5024 83.5427 46.4936 83.7453 46.2822L83.948 46.0619L83.9744 40.3968C84.0008 34.7845 84.0008 34.7316 84.2035 34.1501C84.5911 32.9959 85.3312 32.3528 86.1858 32.4321C86.8642 32.4937 87.3312 32.9519 87.6308 33.8505C87.7629 34.247 87.7805 34.9519 87.8158 40.2029C87.8422 46.0707 87.8422 46.106 88.0272 46.2998C88.2034 46.4936 88.2827 46.5024 89.4986 46.5024C90.7673 46.5024 90.7761 46.5024 91.0228 46.2646L91.2695 46.0267V40.6963C91.2695 33.7801 91.199 33.0224 90.5118 31.6391C90.1682 30.9519 89.5603 30.3087 88.8907 29.9123C88.036 29.4189 86.8114 29.2867 85.7189 29.5686Z" fill="white"/>
<path d="M54.1155 29.877L53.9216 30.1589L54.4415 32.1413C55.0846 34.6435 57.4106 43.5774 57.8423 45.2425L58.1683 46.5024H59.6397H61.1022L61.252 45.9033C61.3313 45.5773 61.6132 44.476 61.8863 43.4628C62.5824 40.8197 63.2079 38.4232 63.6925 36.5466C63.9304 35.6479 64.3973 33.8505 64.741 32.5378L65.3665 30.1677L65.1639 29.877L64.97 29.5863L63.5251 29.6039L62.0714 29.6303L61.0405 34.3439C60.4679 36.9342 59.948 39.3659 59.8864 39.7448C59.7718 40.5025 59.719 40.4849 59.5604 39.6302C59.4635 39.1369 59.0053 37.0576 57.6573 31.0576C57.4899 30.2823 57.3489 29.6391 57.3489 29.6215C57.3489 29.6039 56.6617 29.5863 55.8335 29.5863H54.3093L54.1155 29.877Z" fill="white"/>
<path d="M116.301 29.7976L116.107 30.0002L116.115 35.8592C116.115 40.5905 116.142 41.8768 116.248 42.5288C116.644 44.9429 117.631 46.2556 119.349 46.6433C120.626 46.9252 121.834 46.6874 122.952 45.9208C123.261 45.7094 123.534 45.5332 123.56 45.5332C123.587 45.5332 123.604 45.6301 123.604 45.7446C123.604 45.8592 123.631 46.0794 123.657 46.2292L123.719 46.5023H125.014C126.212 46.5023 126.318 46.4847 126.477 46.3173C126.635 46.1411 126.644 45.8768 126.609 38.0707L126.582 30.0002L126.353 29.7976C126.142 29.5949 126.071 29.5861 124.882 29.5861H123.64L123.402 29.8328L123.173 30.0707L123.146 36.0178C123.111 42.5993 123.138 42.3702 122.538 43.0927C122.133 43.586 121.657 43.7975 121.058 43.7534C120.626 43.7094 120.538 43.6742 120.248 43.3482C119.851 42.89 119.649 42.2557 119.543 41.1543C119.508 40.6786 119.472 37.9649 119.464 35.1279V29.965L119.261 29.7799C119.067 29.5949 118.97 29.5861 117.781 29.5861C116.547 29.5861 116.494 29.5949 116.301 29.7976Z" fill="white"/>
</svg>
