<svg width="185" height="41" viewBox="0 0 185 41" fill="none" xmlns="http://www.w3.org/2000/svg">
<mask id="path-1-inside-1_29_1442" fill="white">
<path fill-rule="evenodd" clip-rule="evenodd" d="M12.6597 20.4255L0.744775 40.8511H0V41H160V40.8511H172.745L184.66 20.4255L172.745 0H160H148.915H0.744775L12.6597 20.4255Z"/>
</mask>
<path d="M0.744775 40.8511V41.8511H1.31915L1.60855 41.3549L0.744775 40.8511ZM12.6597 20.4255L13.5234 20.9294L13.8174 20.4255L13.5234 19.9217L12.6597 20.4255ZM0 40.8511V39.8511H-1V40.8511H0ZM0 41H-1V42H0V41ZM160 41V42H161V41H160ZM160 40.8511V39.8511H159V40.8511H160ZM172.745 40.8511V41.8511H173.319L173.609 41.3549L172.745 40.8511ZM184.66 20.4255L185.523 20.9294L185.817 20.4255L185.523 19.9217L184.66 20.4255ZM172.745 0L173.609 -0.503871L173.319 -1H172.745V0ZM0.744775 0V-1H-0.996262L-0.119004 0.503871L0.744775 0ZM1.60855 41.3549L13.5234 20.9294L11.7959 19.9217L-0.119004 40.3472L1.60855 41.3549ZM0 41.8511H0.744775V39.8511H0V41.8511ZM1 41V40.8511H-1V41H1ZM160 40H0V42H160V40ZM159 40.8511V41H161V40.8511H159ZM172.745 39.8511H160V41.8511H172.745V39.8511ZM183.796 19.9217L171.881 40.3472L173.609 41.3549L185.523 20.9294L183.796 19.9217ZM171.881 0.503871L183.796 20.9294L185.523 19.9217L173.609 -0.503871L171.881 0.503871ZM160 1H172.745V-1H160V1ZM148.915 1H160V-1H148.915V1ZM0.744775 1H148.915V-1H0.744775V1ZM13.5234 19.9217L1.60855 -0.503871L-0.119004 0.503871L11.7959 20.9294L13.5234 19.9217Z" fill="url(#paint0_linear_29_1442)" mask="url(#path-1-inside-1_29_1442)"/>
<defs>
<linearGradient id="paint0_linear_29_1442" x1="0" y1="41" x2="17.3511" y2="-37.1475" gradientUnits="userSpaceOnUse">
<stop stop-color="#FF8E59"/>
<stop offset="1" stop-color="#FF3837"/>
</linearGradient>
</defs>
</svg>
