<svg width="16" height="16" viewBox="0 0 16 16" fill="none" xmlns="http://www.w3.org/2000/svg">
<path d="M0.941176 0C0.421379 0 0 0.421379 0 0.941176C0 1.46097 0.421379 1.88235 0.941176 1.88235H2.08868L2.37627 3.0327C2.37929 3.046 2.38259 3.05919 2.38616 3.07227L3.66355 8.18185L2.82348 9.02192C1.63767 10.2077 2.47751 12.2353 4.15451 12.2353H12.2352C12.755 12.2353 13.1764 11.8139 13.1764 11.2941C13.1764 10.7743 12.755 10.3529 12.2352 10.3529L4.15451 10.3529L5.09568 9.41177H11.2941C11.6506 9.41177 11.9765 9.21035 12.1359 8.89149L14.9595 3.24444C15.1053 2.95268 15.0897 2.6062 14.9183 2.32872C14.7468 2.05125 14.4438 1.88235 14.1176 1.88235H4.02897L3.7366 0.712908C3.63186 0.293927 3.2554 0 2.82353 0H0.941176Z" fill="#1A1A1A"/>
<path d="M13.1765 14.5882C13.1765 15.3679 12.5444 16 11.7647 16C10.985 16 10.3529 15.3679 10.3529 14.5882C10.3529 13.8085 10.985 13.1765 11.7647 13.1765C12.5444 13.1765 13.1765 13.8085 13.1765 14.5882Z" fill="#1A1A1A"/>
<path d="M4.23529 16C5.01499 16 5.64706 15.3679 5.64706 14.5882C5.64706 13.8085 5.01499 13.1765 4.23529 13.1765C3.4556 13.1765 2.82353 13.8085 2.82353 14.5882C2.82353 15.3679 3.4556 16 4.23529 16Z" fill="#1A1A1A"/>
</svg>
