<svg width="25" height="24" viewBox="0 0 25 24" fill="none" xmlns="http://www.w3.org/2000/svg">
<path d="M11.4634 0.572888C8.67043 0.793151 6.22992 1.90328 4.2035 3.86802C1.8599 6.14114 0.652853 8.96931 0.644043 12.194C0.644043 14.3437 1.03171 15.912 2.03611 17.8063C3.13742 19.8855 5.296 21.9208 7.41053 22.8723C8.89951 23.5419 10.9259 24.0001 12.3885 24.0001C13.0228 24.0001 14.6704 23.771 15.296 23.5948C18.0889 22.8195 20.2739 21.304 21.9215 19.0133C25.2342 14.3966 24.7056 8.07945 20.6704 4.00899C18.2387 1.55967 14.8642 0.299762 11.4634 0.572888ZM14.4149 2.19402C15.1109 2.3438 16.3268 2.7579 16.9259 3.05745C17.6396 3.40988 18.7673 4.21163 19.4193 4.82837C20.8554 6.18519 21.8157 7.84157 22.3972 9.99133C22.5206 10.4407 22.5558 10.9076 22.5558 12.194C22.5646 13.6918 22.547 13.8944 22.3179 14.7314C22.036 15.7975 21.7541 16.5023 21.2607 17.3481C20.2034 19.1807 18.6616 20.5992 16.7761 21.4891C15.296 22.1763 14.3797 22.4054 12.7409 22.4758C9.76294 22.608 6.95238 21.4538 4.86429 19.2336C4.11539 18.4406 3.81583 18.0177 3.26077 16.9957C1.71893 14.1323 1.71012 10.3878 3.24315 7.52439C4.89072 4.4319 7.79819 2.46715 11.3312 2.02662C11.8951 1.95614 13.7453 2.06187 14.4149 2.19402Z" fill="#FF3535"/>
<path d="M11.1278 2.68746C9.01325 2.99583 7.05732 3.9738 5.57715 5.46278C2.87233 8.16761 2.0089 12.1676 3.35691 15.7623C4.2732 18.194 6.46701 20.423 8.82823 21.3217C9.67404 21.6389 10.6961 21.8768 11.6828 21.9825C13.8943 22.2204 16.7313 21.357 18.4669 19.9208C19.718 18.8724 20.4669 17.9561 21.1013 16.7138C23.4625 12.009 21.7885 6.45837 17.2158 3.85045C15.4714 2.85486 13.0925 2.39672 11.1278 2.68746ZM14.5022 4.3967C15.4273 4.6434 16 4.93415 16 5.13679C16 5.40991 15.5683 6.44955 15.2247 6.99581C14.8282 7.63016 14.3524 8.07069 13.7357 8.37025C13.3128 8.5817 13.1278 8.61694 12.4846 8.61694C11.8326 8.61694 11.6476 8.5817 11.1718 8.37025C10.2115 7.92972 9.38329 6.83722 8.97801 5.4804C8.85466 5.05749 8.85466 5.01344 9.00444 4.90771C9.19827 4.76675 10.0881 4.46719 10.8106 4.3086C11.5947 4.13239 13.7269 4.18525 14.5022 4.3967ZM7.77978 7.55968C8.27317 8.01783 8.50224 8.3262 8.75775 8.82839C9.0573 9.45394 9.08374 9.55086 9.08374 10.2998C9.08374 11.0486 9.06611 11.1279 8.76656 11.6654C8.38771 12.3526 7.73573 12.8989 6.96921 13.172C6.35248 13.3834 4.96923 13.542 4.59038 13.4451L4.32606 13.3658L4.33487 12.1852C4.33487 11.2513 4.37892 10.8548 4.53751 10.2645C4.85469 9.06628 5.60358 7.69184 6.39653 6.83722C6.58155 6.64339 6.59036 6.64339 6.85468 6.79316C7.01327 6.88127 7.42736 7.22488 7.77978 7.55968ZM18.8898 7.31299C20.0088 8.7491 20.5814 10.3967 20.5903 12.2116C20.5903 12.7843 20.5638 13.2953 20.5374 13.3394C20.4493 13.4803 18.9427 13.4451 18.3524 13.2865C17.6475 13.1103 17.2158 12.8812 16.7401 12.4407C15.4009 11.2072 15.4449 9.30416 16.8546 7.78875C17.2863 7.3218 18.1409 6.6522 18.3083 6.64339C18.3436 6.64339 18.6079 6.94294 18.8898 7.31299ZM12.7049 11.7359C12.9339 11.8856 13.022 12.2028 12.9163 12.4583C12.7489 12.8724 12.0705 12.9605 11.8414 12.6081C11.7269 12.4319 11.7621 12.0707 11.9119 11.8592C12.0441 11.6654 12.4934 11.5949 12.7049 11.7359ZM9.8943 15.0134C11.2423 15.683 11.8326 17.1631 11.4714 18.9781C11.3833 19.3834 11.2599 19.8504 11.1894 20.0178C11.0749 20.3085 11.0485 20.3173 10.7137 20.2644C9.87668 20.1323 8.25555 19.401 7.51547 18.8195C6.66966 18.1499 5.50667 16.7931 5.28641 16.2116C5.23354 16.0795 6.07935 15.4363 6.74014 15.1015C7.74454 14.5993 8.97801 14.564 9.8943 15.0134ZM18.1674 15.1367C18.9427 15.5068 19.6123 15.9913 19.6123 16.1852C19.6123 16.379 18.7577 17.5332 18.185 18.0971C17.2687 19.0222 16.0881 19.7182 14.8194 20.1147C13.8678 20.4054 13.8326 20.3966 13.6211 19.7006C13.5154 19.3746 13.4009 18.8195 13.348 18.4671C13.1454 17.0222 13.7974 15.5949 14.9075 15.0486C15.5859 14.7138 15.859 14.661 16.6608 14.705C17.2687 14.7403 17.4801 14.8019 18.1674 15.1367Z" fill="#FF3535"/>
</svg>
