<svg width="16" height="16" viewBox="0 0 16 16" fill="none" xmlns="http://www.w3.org/2000/svg">
<path d="M14.3158 7.5781H16C16 3.2581 12.7385 0 8.4126 0V1.68421C11.8332 1.68421 14.3158 4.16252 14.3158 7.5781Z" fill="url(#paint0_linear_54_77)"/>
<path d="M8.42128 5.05263C10.1922 5.05263 10.9476 5.808 10.9476 7.57894H12.6318C12.6318 4.86315 11.1371 3.36842 8.42128 3.36842V5.05263ZM11.303 9.6362C10.967 9.33052 10.4482 9.34652 10.1316 9.67241L8.11644 11.7448C7.63139 11.6522 6.65623 11.3482 5.65244 10.3469C4.64866 9.34231 4.34466 8.36463 4.25455 7.88294L6.32529 5.86694C6.65202 5.55031 6.66718 5.03242 6.3615 4.69558L3.24992 1.2741C2.94424 0.93642 2.42466 0.90442 2.07855 1.20084L0.251185 2.768C0.105501 2.91452 0.0187637 3.10821 0.00697428 3.31452C-0.00565729 3.52505 -0.246499 8.51199 3.62045 12.3806C6.99392 15.7533 11.2196 16 12.3834 16C12.5535 16 12.6579 15.9949 12.6857 15.9933C12.892 15.9815 13.0857 15.8947 13.2314 15.7482L14.7977 13.92C15.095 13.5739 15.0613 13.0551 14.7253 12.7486L11.303 9.6362Z" fill="url(#paint1_linear_54_77)"/>
<defs>
<linearGradient id="paint0_linear_54_77" x1="8.4126" y1="7.5781" x2="15.9907" y2="-0.00925738" gradientUnits="userSpaceOnUse">
<stop stop-color="#FF8E59"/>
<stop offset="1" stop-color="#FF3837"/>
</linearGradient>
<linearGradient id="paint1_linear_54_77" x1="0" y1="16" x2="15.0019" y2="0.999359" gradientUnits="userSpaceOnUse">
<stop stop-color="#FF8E59"/>
<stop offset="1" stop-color="#FF3837"/>
</linearGradient>
</defs>
</svg>
