<svg width="13" height="16" viewBox="0 0 13 16" fill="none" xmlns="http://www.w3.org/2000/svg">
<path d="M6.40006 0C2.87127 0 6.51557e-05 2.8712 6.51557e-05 6.396C-0.0231348 11.552 6.15687 15.8272 6.40006 16C6.40006 16 12.8233 11.552 12.8001 6.4C12.8001 2.8712 9.92886 0 6.40006 0ZM6.40006 9.6C4.63206 9.6 3.20007 8.168 3.20007 6.4C3.20007 4.632 4.63206 3.2 6.40006 3.2C8.16807 3.2 9.60007 4.632 9.60007 6.4C9.60007 8.168 8.16807 9.6 6.40006 9.6Z" fill="url(#paint0_linear_20_271)"/>
<path d="M7.93335 6.3667C7.93335 7.19513 7.26178 7.8667 6.43335 7.8667C5.60492 7.8667 4.93335 7.19513 4.93335 6.3667C4.93335 5.53827 5.60492 4.8667 6.43335 4.8667C7.26178 4.8667 7.93335 5.53827 7.93335 6.3667Z" fill="url(#paint1_linear_20_271)"/>
<defs>
<linearGradient id="paint0_linear_20_271" x1="0" y1="16" x2="15.6098" y2="3.51204" gradientUnits="userSpaceOnUse">
<stop stop-color="#FF8E59"/>
<stop offset="1" stop-color="#FF3837"/>
</linearGradient>
<linearGradient id="paint1_linear_20_271" x1="4.93335" y1="7.8667" x2="7.93335" y2="4.8667" gradientUnits="userSpaceOnUse">
<stop stop-color="#FF8E59"/>
<stop offset="1" stop-color="#FF3837"/>
</linearGradient>
</defs>
</svg>
