<?xml version="1.0" encoding="utf-8"?>
<!-- Generator: Adobe Illustrator 26.0.0, SVG Export Plug-In . SVG Version: 6.00 Build 0)  -->
<svg version="1.1" id="Layer_1" xmlns="http://www.w3.org/2000/svg" xmlns:xlink="http://www.w3.org/1999/xlink" x="0px" y="0px"
	 viewBox="0 0 16 16" style="enable-background:new 0 0 16 16;" xml:space="preserve">
<style type="text/css">
	.st0{fill:#FF3535;}
</style>
<path class="st0" d="M15.8,14.9l-4.6-4.5c1-1.3,1.5-2.9,1.4-4.5c-0.1-1.6-0.9-3.1-2.1-4.2C9.4,0.5,7.8,0,6.2,0S3,0.7,1.9,1.9
	C0.7,3,0,4.6,0,6.2c0,1.6,0.5,3.2,1.6,4.4c1.1,1.2,2.6,2,4.2,2.1c1.6,0.1,3.2-0.4,4.5-1.4l4.5,4.6c0.1,0.1,0.1,0.1,0.2,0.1
	c0.1,0,0.2,0.1,0.3,0.1c0.1,0,0.2,0,0.3-0.1c0.1,0,0.2-0.1,0.2-0.1c0.1-0.1,0.1-0.1,0.1-0.2c0-0.1,0.1-0.2,0.1-0.3
	c0-0.1,0-0.2-0.1-0.3C15.9,15,15.9,14.9,15.8,14.9z M6.4,11.4c-1,0-2-0.3-2.8-0.8C2.8,10,2.1,9.2,1.7,8.3C1.4,7.4,1.3,6.4,1.5,5.4
	c0.2-1,0.7-1.9,1.4-2.6c0.7-0.7,1.6-1.2,2.6-1.4s2-0.1,2.9,0.3s1.7,1,2.2,1.8c0.5,0.8,0.8,1.8,0.8,2.8c0,1.3-0.5,2.6-1.5,3.5
	C9,10.8,7.7,11.4,6.4,11.4z"/>
</svg>
