<svg width="18" height="16" viewBox="0 0 18 16" fill="none" xmlns="http://www.w3.org/2000/svg">
<path d="M17.2552 0.219953C16.9552 -0.0344475 16.484 -0.0708476 15.9968 0.124753H15.996C15.4836 0.330354 1.49153 6.33197 0.921926 6.57717C0.818326 6.61317 -0.0864767 6.95077 0.00672357 7.70278C0.0899238 8.38078 0.817126 8.66158 0.905926 8.69398L4.46314 9.91198C4.69914 10.6976 5.56914 13.596 5.76154 14.2152C5.88154 14.6012 6.07714 15.1084 6.41994 15.2128C6.72074 15.3288 7.01994 15.2228 7.21354 15.0708L9.38835 13.0536L12.8992 15.7916L12.9828 15.8416C13.2212 15.9472 13.4496 16 13.6676 16C13.836 16 13.9976 15.9684 14.152 15.9052C14.678 15.6892 14.8884 15.188 14.9104 15.1312L17.5328 1.50036C17.6928 0.772355 17.4704 0.401954 17.2552 0.219953ZM7.60035 10.3992L6.40034 13.5992L5.20034 9.59918L14.4004 2.79916L7.60035 10.3992Z" fill="url(#paint0_linear_54_688)"/>
<defs>
<linearGradient id="paint0_linear_54_688" x1="0" y1="16" x2="15.9287" y2="-1.5089" gradientUnits="userSpaceOnUse">
<stop stop-color="#FF8E59"/>
<stop offset="1" stop-color="#FF3837"/>
</linearGradient>
</defs>
</svg>
