<svg width="16" height="18" viewBox="0 0 16 18" fill="none" xmlns="http://www.w3.org/2000/svg">
<path fill-rule="evenodd" clip-rule="evenodd" d="M6.45435 15.179C6.93646 15.2175 7.45109 15.2365 8 15.2365C14.1538 15.2365 16 12.8409 16 7.61826C16 2.39564 14.1538 0 8 0C1.84615 0 0 2.39564 0 7.61826C0 11.3098 0.922363 13.5889 3.63636 14.608V17.7092C3.63636 17.9796 3.9743 18.1031 4.14935 17.8967L6.45435 15.179ZM7.84946 2.34415C7.84946 2.15411 8.01314 2.00006 8.21505 2.00006C11.0418 2.00006 13.3333 4.1568 13.3333 6.81727C13.3333 7.0073 13.1697 7.16135 12.9677 7.16135C12.7658 7.16135 12.6021 7.0073 12.6021 6.81727C12.6021 4.53686 10.638 2.68823 8.21505 2.68823C8.01314 2.68823 7.84946 2.53418 7.84946 2.34415ZM4.31659 3.155C4.10739 2.97157 3.7424 3.02238 3.53517 3.12263C2.82144 3.46792 2.48917 3.83695 2.19383 4.19087C1.89849 4.5448 2.00514 5.01454 2.09539 5.20517C2.3333 6.00726 3.72041 8.3871 5.33182 9.75872C7.85451 11.906 10.7095 12.6667 11.0048 12.6667C11.8047 12.6667 12.6969 11.6794 12.9061 11.2316C13.0734 10.8734 12.8609 10.6004 12.7338 10.5086C12.5246 10.3576 12.0533 10.0198 11.8416 9.87741C11.577 9.69937 10.9925 9.3217 10.4818 9.14906C10.0733 9.01094 9.74551 9.20661 9.6327 9.3217C9.56092 9.40803 9.3632 9.63463 9.14662 9.85043C8.93502 10.0613 8.68959 10.0183 8.52491 9.98952C8.47889 9.98147 8.43918 9.97452 8.40827 9.97452C7.92219 9.87201 7.14693 9.5483 6.41473 8.93325C5.68253 8.3182 5.25798 7.49273 5.06109 7.07191C4.90357 6.73525 5.0816 6.47124 5.1903 6.38132C5.30721 6.31658 5.59639 6.13638 5.8179 5.93352C6.09478 5.67995 6.03325 5.25912 5.97787 5.14043C5.9225 5.02173 5.53486 4.48761 5.25798 4.13692C4.9811 3.78623 4.57809 3.38429 4.31659 3.155ZM8.21505 4.75275C8.01314 4.75275 7.84946 4.9068 7.84946 5.09684C7.84946 5.28687 8.01314 5.44092 8.21505 5.44092C9.0227 5.44092 9.67742 6.05713 9.67742 6.81727C9.67742 7.0073 9.8411 7.16135 10.043 7.16135C10.2449 7.16135 10.4086 7.0073 10.4086 6.81727C10.4086 5.67706 9.42652 4.75275 8.21505 4.75275ZM8.21505 3.37641C8.01314 3.37641 7.84946 3.53046 7.84946 3.72049C7.84946 3.91052 8.01314 4.06458 8.21505 4.06458C9.83034 4.06458 11.1398 5.297 11.1398 6.81727C11.1398 7.0073 11.3035 7.16135 11.5054 7.16135C11.7073 7.16135 11.871 7.0073 11.871 6.81727C11.871 4.91693 10.2342 3.37641 8.21505 3.37641Z" fill="url(#paint0_linear_58_32)"/>
<defs>
<linearGradient id="paint0_linear_58_32" x1="0" y1="18" x2="17.8759" y2="2.11034" gradientUnits="userSpaceOnUse">
<stop stop-color="#FF8E59"/>
<stop offset="1" stop-color="#FF3837"/>
</linearGradient>
</defs>
</svg>
