<svg width="16" height="16" viewBox="0 0 16 16" fill="none" xmlns="http://www.w3.org/2000/svg">
<path d="M8.00003 0C3.58891 0 5.16254e-05 3.58886 5.16254e-05 7.99997C5.16254e-05 9.37736 0.355877 10.7318 1.03066 11.9269L0.0129211 15.5582C-0.0204701 15.6775 0.0118777 15.8055 0.0981383 15.8942C0.164573 15.9627 0.255007 15.9999 0.347877 15.9999C0.375703 15.9999 0.403876 15.9965 0.431355 15.9899L4.22126 15.0511C5.37847 15.6723 6.68177 15.9999 8.00003 15.9999C12.4111 15.9999 16 12.4111 16 7.99997C16 3.58886 12.4111 0 8.00003 0ZM12.0244 10.8229C11.8532 11.2967 11.0324 11.729 10.6379 11.7871C10.2838 11.8389 9.83585 11.8612 9.34402 11.7067C9.04594 11.6128 8.66333 11.4883 8.17324 11.2793C6.11308 10.4007 4.76769 8.35232 4.66473 8.21702C4.56212 8.08171 3.82613 7.11754 3.82613 6.11963C3.82613 5.12172 4.35656 4.63094 4.54508 4.42781C4.7336 4.22468 4.95586 4.1739 5.09291 4.1739C5.22995 4.1739 5.36664 4.17564 5.48664 4.1812C5.6129 4.18746 5.78229 4.13355 5.9489 4.52938C6.12003 4.93564 6.53081 5.93355 6.5816 6.03546C6.63307 6.13702 6.66716 6.25563 6.59899 6.39094C6.53081 6.52624 6.49673 6.61076 6.39377 6.72937C6.29081 6.84798 6.17812 6.99372 6.0856 7.08485C5.98264 7.18606 5.87586 7.29563 5.99551 7.49876C6.11516 7.70189 6.52733 8.36589 7.13812 8.90362C7.92246 9.5944 8.58437 9.80866 8.78959 9.91023C8.99481 10.0118 9.11481 9.99475 9.23446 9.85945C9.35411 9.72379 9.74785 9.2671 9.88454 9.06432C10.0212 8.86154 10.1583 8.89493 10.3468 8.96275C10.5353 9.03023 11.5451 9.52066 11.7503 9.62223C11.9555 9.72379 12.0925 9.77458 12.144 9.8591C12.1955 9.94327 12.1955 10.3495 12.0244 10.8229Z" fill="url(#paint0_linear_54_687)"/>
<defs>
<linearGradient id="paint0_linear_54_687" x1="0" y1="15.9999" x2="15.9999" y2="-5.14983e-05" gradientUnits="userSpaceOnUse">
<stop stop-color="#FF8E59"/>
<stop offset="1" stop-color="#FF3837"/>
</linearGradient>
</defs>
</svg>
